<?xml version="1.0" standalone="no"?>
<!DOCTYPE svg PUBLIC "-//W3C//DTD SVG 20010904//EN"
 "http://www.w3.org/TR/2001/REC-SVG-20010904/DTD/svg10.dtd">
<svg version="1.0" xmlns="http://www.w3.org/2000/svg"
 width="4096.000000pt" height="4096.000000pt" viewBox="0 0 4096.000000 4096.000000"
 preserveAspectRatio="xMidYMid meet">
<metadata>
Created by potrace 1.14, written by Peter Selinger 2001-2017
</metadata>
<g transform="translate(0.000000,4096.000000) scale(0.100000,-0.100000)"
fill="#000000" stroke="none">
<path d="M27608 34575 c-2 -1 -43 -5 -93 -9 -49 -4 -115 -11 -145 -16 -30 -5
-72 -11 -92 -14 -21 -3 -59 -11 -85 -17 -27 -6 -56 -12 -65 -14 -132 -27 -362
-112 -534 -196 -132 -65 -380 -220 -458 -285 -18 -16 -57 -49 -87 -74 -166
-140 -380 -384 -488 -560 -18 -30 -42 -66 -51 -80 -25 -37 -133 -250 -129
-254 14 -13 320 -97 399 -110 19 -3 49 -8 65 -12 176 -35 561 -39 775 -8 428
63 813 217 1155 463 286 205 533 473 713 772 67 112 134 248 127 259 -4 7
-127 48 -152 51 -5 1 -19 6 -33 11 -44 17 -262 61 -355 73 -27 3 -64 8 -81 11
-33 5 -381 13 -386 9z"/>
<path d="M12644 34366 c-98 -72 -155 -145 -200 -256 -31 -78 -72 -125 -136
-155 -60 -28 -117 -26 -223 10 -69 24 -91 27 -165 22 -109 -6 -180 -38 -270
-123 -88 -82 -120 -98 -201 -98 -60 0 -73 3 -146 46 -90 52 -140 69 -226 72
-167 8 -324 -75 -414 -218 -79 -123 -92 -289 -36 -446 45 -128 37 -196 -32
-279 -29 -33 -59 -50 -146 -80 -145 -49 -256 -168 -303 -325 -18 -59 -18 -182
0 -249 15 -58 44 -127 53 -127 3 0 24 35 45 78 177 345 454 686 752 922 82 65
103 80 112 80 6 0 12 4 14 8 5 13 114 84 228 149 291 164 561 262 882 318 188
33 267 40 483 40 233 0 310 -7 520 -46 830 -154 1548 -691 1945 -1457 61 -117
61 -117 100 9 55 174 8 363 -119 490 -59 58 -117 92 -232 133 -125 45 -185
191 -130 318 61 142 59 278 -4 416 -113 243 -422 344 -640 207 -147 -92 -243
-83 -363 31 -92 89 -172 126 -279 132 -70 4 -93 1 -160 -23 -94 -33 -143 -37
-206 -18 -65 19 -125 80 -156 158 -13 33 -32 72 -43 87 -10 14 -18 30 -18 35
0 28 -183 183 -216 183 -6 0 -38 -20 -70 -44z"/>
<path d="M29066 34201 c-3 -4 -30 -56 -60 -113 -86 -167 -170 -301 -280 -447
l-40 -53 34 -30 c242 -205 552 -379 870 -485 41 -14 82 -26 90 -28 8 -2 42
-11 75 -19 33 -9 71 -19 85 -21 14 -3 36 -7 50 -10 130 -26 250 -40 250 -28 0
5 -36 81 -80 170 -70 141 -203 357 -267 433 -143 171 -214 246 -330 351 -131
119 -386 298 -397 280z"/>
<path d="M12578 33265 c-2 -2 -34 -5 -73 -9 -83 -7 -244 -32 -300 -47 -22 -6
-51 -13 -65 -16 -71 -12 -311 -103 -430 -162 -252 -126 -413 -243 -615 -446
-166 -166 -272 -311 -394 -536 -22 -42 -41 -79 -41 -82 0 -14 278 -90 375
-103 28 -3 57 -8 66 -9 127 -24 434 -24 602 0 59 9 110 17 122 20 6 1 28 5 50
10 403 78 826 306 1128 608 146 146 203 215 307 372 52 78 150 257 150 273 0
10 -207 67 -314 87 -167 32 -227 38 -408 40 -87 1 -159 1 -160 0z"/>
<path d="M28324 33201 c-51 -47 -227 -186 -298 -236 -236 -163 -530 -311 -796
-399 -146 -48 -388 -106 -507 -121 -26 -4 -59 -8 -73 -11 -78 -12 -210 -19
-400 -19 -231 1 -285 5 -505 41 -124 20 -312 66 -428 105 -48 16 -92 27 -96
25 -5 -3 -12 -25 -16 -48 -5 -24 -9 -45 -10 -48 0 -3 -5 -27 -10 -55 -4 -27
-10 -57 -11 -65 -3 -16 -14 -101 -20 -165 -5 -53 -6 -402 0 -440 2 -16 7 -59
10 -95 40 -386 217 -846 451 -1176 109 -154 293 -356 440 -485 120 -106 328
-245 493 -331 205 -107 485 -204 697 -243 270 -48 534 -59 790 -31 33 4 72 9
87 12 15 3 39 7 55 9 100 13 294 64 428 112 749 267 1325 847 1589 1603 28 79
91 320 99 380 3 19 10 67 16 105 5 39 13 104 17 145 7 76 7 379 0 435 -34 277
-26 255 -95 256 -31 0 -65 2 -76 4 -11 2 -49 6 -85 9 -79 7 -129 14 -195 26
-27 5 -66 12 -85 15 -19 3 -42 8 -50 10 -8 2 -29 7 -46 10 -49 8 -262 71 -350
104 -326 120 -623 289 -890 506 l-101 83 -29 -27z"/>
<path d="M13907 32922 c-3 -4 -26 -48 -52 -96 -25 -48 -53 -100 -62 -114 -18
-30 -160 -243 -181 -272 -18 -25 -5 -38 148 -145 305 -216 659 -355 1012 -399
l36 -5 -26 57 c-80 175 -238 421 -347 538 -125 136 -228 232 -335 312 -52 40
-99 76 -105 80 -5 4 -17 11 -25 15 -8 4 -25 14 -37 22 -11 9 -24 12 -26 7z"/>
<path d="M13216 32021 c-137 -119 -334 -257 -481 -336 -38 -21 -77 -42 -85
-46 -91 -51 -415 -176 -500 -194 -8 -2 -51 -12 -95 -23 -44 -12 -100 -24 -125
-27 -24 -4 -47 -8 -51 -11 -4 -2 -28 -6 -55 -9 -27 -3 -60 -7 -74 -10 -48 -9
-235 -19 -360 -19 -291 1 -546 41 -851 137 -31 10 -46 11 -46 3 -1 -6 -6 -34
-12 -63 -6 -29 -13 -74 -17 -100 -3 -26 -8 -57 -11 -68 -12 -54 -11 -418 3
-529 70 -584 370 -1132 819 -1494 39 -31 72 -59 75 -62 3 -3 55 -38 115 -78
174 -116 380 -213 580 -276 416 -130 897 -134 1306 -11 46 14 91 27 99 29 62
17 325 136 395 179 114 69 204 130 275 185 124 96 309 284 403 407 98 130 162
233 237 385 32 65 61 129 65 142 4 13 13 37 20 53 59 133 121 410 141 625 5
54 5 342 0 370 -3 14 -7 55 -11 93 -9 108 -15 117 -77 118 -29 0 -66 2 -83 4
-87 11 -193 26 -217 30 -16 3 -38 7 -50 9 -13 2 -63 14 -113 25 -391 93 -782
284 -1088 531 l-86 70 -45 -39z"/>
<path d="M9984 31604 c-48 -23 -129 -99 -163 -153 -87 -135 -101 -315 -37
-466 23 -53 86 -135 133 -172 l38 -31 0 222 c0 121 3 248 8 281 4 33 9 78 12
100 3 22 10 63 15 90 6 28 12 59 14 70 2 11 7 32 11 48 8 31 9 31 -31 11z"/>
<path d="M15420 31588 c19 -70 47 -271 57 -394 4 -55 6 -168 5 -251 -1 -84 2
-153 6 -153 9 0 66 54 99 93 33 39 73 119 88 175 16 61 17 181 3 242 -17 73
-68 166 -117 215 -45 45 -126 105 -142 105 -4 0 -4 -15 1 -32z"/>
<path d="M19540 30678 c-156 -28 -322 -99 -448 -191 -236 -172 -397 -429 -447
-713 -15 -84 -21 -280 -10 -334 4 -22 12 -62 20 -110 2 -8 15 -53 31 -100 124
-380 458 -671 854 -745 182 -34 386 -19 558 40 317 108 580 362 691 665 52
144 66 234 65 415 -1 114 -6 158 -26 240 -80 318 -298 592 -583 733 -89 44
-207 86 -275 97 -25 4 -54 9 -65 12 -62 13 -267 9 -365 -9z"/>
<path d="M15380 30238 c-48 -181 -166 -457 -274 -644 l-36 -62 63 16 c246 61
396 336 326 595 -11 42 -56 137 -64 137 -2 0 -9 -19 -15 -42z"/>
<path d="M10023 30258 c-13 -21 -52 -108 -49 -108 2 0 -1 -19 -8 -42 -28 -97
2 -266 64 -358 71 -107 187 -190 289 -206 l41 -7 -51 88 c-95 166 -214 447
-250 593 -13 53 -21 62 -36 40z"/>
<path d="M26745 28613 l0 -448 89 -85 c162 -156 201 -194 412 -396 333 -321
379 -364 385 -364 3 0 21 15 41 33 19 17 73 66 119 107 75 67 141 127 173 155
6 6 56 50 111 99 55 50 114 102 130 117 63 56 92 83 159 143 38 33 78 69 90
79 11 10 57 51 101 92 l80 73 -2 378 c-1 209 -2 391 -2 406 -1 25 -3 27 -26
18 -58 -22 -336 -82 -445 -95 -248 -32 -600 -36 -760 -10 -14 2 -47 7 -75 10
-44 5 -75 10 -190 31 -61 11 -272 66 -326 85 -30 10 -57 19 -60 19 -3 0 -5
-201 -4 -447z"/>
<path d="M11830 27646 l0 -724 49 -104 c27 -56 65 -138 85 -180 20 -43 51
-111 70 -150 19 -40 50 -107 69 -148 38 -81 88 -189 162 -345 26 -55 58 -125
72 -155 14 -30 48 -102 75 -160 28 -58 61 -127 73 -155 13 -27 46 -99 74 -158
28 -59 51 -113 51 -118 0 -27 27 17 113 189 52 103 251 497 442 876 l348 689
-1 651 c0 358 -1 659 -1 670 -1 13 -6 16 -18 11 -55 -22 -261 -66 -418 -89
-174 -26 -558 -27 -705 -2 -14 3 -56 9 -95 15 -137 21 -310 62 -390 92 -27 10
-51 19 -52 19 -2 0 -3 -326 -3 -724z"/>
<path d="M25530 28251 c-52 -21 -230 -91 -395 -156 -165 -65 -383 -150 -485
-190 -102 -40 -405 -159 -675 -265 -728 -285 -746 -292 -930 -365 -287 -113
-577 -226 -645 -251 -36 -14 -78 -31 -95 -38 -16 -8 -45 -19 -62 -26 l-33 -12
0 -1904 0 -1904 720 0 c396 0 720 3 721 8 0 4 2 558 3 1232 2 1386 -5 1272 84
1350 137 121 356 55 398 -120 4 -19 8 -575 9 -1235 0 -660 3 -1204 7 -1210 4
-7 380 -9 1100 -9 601 1 1096 2 1099 3 5 1 40 123 54 191 3 16 20 87 91 380
91 375 106 436 110 460 3 14 9 39 14 55 5 17 11 41 14 55 2 14 20 88 39 165
32 129 95 390 102 425 2 8 13 53 25 100 12 47 24 96 27 110 2 14 16 70 30 125
l26 100 1 535 1 535 -567 1 -566 1 -56 27 c-102 50 -137 122 -131 268 6 126
14 295 20 398 8 130 14 254 20 375 6 125 13 276 20 385 3 41 7 129 10 195 3
66 7 148 10 183 3 45 1 62 -8 61 -7 0 -55 -17 -107 -38z"/>
<path d="M29735 28183 c3 -60 7 -153 10 -208 9 -162 14 -262 20 -400 3 -71 8
-157 10 -190 2 -33 6 -109 9 -170 3 -60 9 -162 12 -225 3 -63 7 -149 9 -190
12 -222 6 -254 -55 -323 -29 -34 -61 -54 -114 -71 -10 -4 -272 -6 -581 -6
l-563 -1 -1 -527 -1 -527 30 -150 c37 -192 37 -190 49 -255 6 -30 13 -68 16
-85 3 -16 8 -39 10 -50 2 -11 13 -68 24 -127 12 -60 30 -156 42 -215 11 -60
22 -117 24 -128 1 -11 12 -67 23 -125 12 -58 23 -116 26 -130 3 -14 10 -50 15
-80 6 -30 13 -66 16 -80 3 -14 9 -47 15 -75 5 -27 12 -66 15 -85 3 -19 17 -89
30 -155 24 -121 53 -269 61 -315 2 -14 7 -36 10 -50 3 -14 8 -36 10 -49 3 -14
7 -27 9 -30 4 -8 2302 -7 2310 0 2 3 5 552 6 1220 0 1124 2 1217 17 1257 80
197 355 206 448 15 l27 -55 0 -1229 0 -1229 724 0 723 0 0 1903 0 1903 -352
139 c-194 76 -447 175 -563 220 -115 46 -298 117 -405 159 -290 114 -701 276
-995 391 -275 108 -523 206 -795 312 -91 35 -174 68 -185 72 -76 32 -125 51
-135 51 -8 0 -9 -32 -5 -107z"/>
<path d="M29214 28102 c-77 -69 -197 -177 -214 -192 -9 -8 -48 -42 -85 -75
-37 -33 -73 -65 -79 -70 -6 -6 -76 -69 -156 -140 -80 -71 -147 -132 -150 -135
-3 -3 -43 -39 -90 -80 -46 -41 -91 -82 -100 -90 -9 -8 -44 -40 -79 -70 -35
-30 -77 -68 -95 -85 -29 -27 -67 -60 -224 -200 -25 -22 -59 -52 -76 -67 l-30
-28 747 0 748 0 -6 118 c-3 64 -7 151 -10 192 -2 41 -7 129 -10 195 -3 66 -8
152 -10 190 -2 39 -7 124 -10 190 -3 66 -8 143 -10 170 -2 28 -5 87 -6 133 -2
45 -5 82 -8 82 -4 0 -25 -17 -47 -38z"/>
<path d="M26109 28085 c-1 -22 -3 -58 -4 -80 -9 -143 -17 -293 -20 -370 -6
-132 -14 -300 -20 -380 -2 -38 -7 -135 -11 -215 -3 -80 -7 -149 -8 -155 0 -7
234 -11 684 -13 l685 -2 -75 71 c-64 61 -152 146 -530 509 -26 25 -147 142
-270 260 -123 118 -250 241 -284 274 -34 32 -80 77 -103 99 l-43 41 -1 -39z"/>
<path d="M19390 27907 l0 -104 151 -147 151 -146 49 43 c26 23 106 94 178 157
l130 115 0 88 1 87 -37 -4 c-99 -13 -185 -20 -263 -20 -88 0 -258 12 -269 19
-4 2 -25 6 -49 10 l-42 6 0 -104z"/>
<path d="M18785 27702 c-6 -5 -64 -29 -130 -54 -123 -48 -250 -98 -715 -281
-146 -57 -366 -144 -490 -192 -212 -83 -245 -99 -235 -116 3 -3 44 -30 92 -58
49 -28 120 -75 158 -103 64 -48 209 -185 245 -233 185 -242 276 -563 296
-1040 3 -77 7 -144 8 -150 2 -7 632 -10 1862 -10 l1859 0 1 845 0 845 22 49
c22 49 21 66 -2 66 -7 0 -64 20 -127 45 -63 25 -224 89 -359 141 -135 53 -258
102 -275 109 -48 20 -214 85 -220 85 -3 0 -24 8 -48 19 -107 47 -93 47 -161
-11 -70 -59 -83 -71 -128 -114 -18 -17 -96 -87 -173 -155 -77 -68 -145 -128
-151 -134 -25 -23 -162 -145 -197 -176 -21 -19 -53 -46 -70 -61 -43 -39 -120
-66 -175 -61 -70 5 -118 34 -222 134 -208 201 -479 462 -558 538 -86 83 -91
87 -107 73z"/>
<path d="M10650 27540 c-168 -65 -424 -162 -570 -215 -146 -53 -287 -105 -315
-115 -27 -11 -160 -60 -295 -109 -230 -84 -528 -197 -595 -226 -16 -7 -75 -31
-130 -55 -521 -221 -758 -429 -864 -760 -84 -260 -109 -741 -55 -1053 43 -254
133 -491 273 -722 20 -33 40 -64 44 -70 4 -5 25 -33 45 -62 111 -151 289 -342
411 -441 25 -21 53 -44 62 -53 30 -30 218 -169 228 -169 5 0 11 -4 13 -8 2 -4
39 -32 83 -60 l80 -53 3 916 c2 721 5 915 15 916 59 4 449 1 454 -4 3 -4 6
-473 6 -1043 l0 -1036 71 -32 c39 -18 132 -56 206 -85 74 -29 144 -57 155 -61
11 -5 79 -28 150 -51 72 -22 148 -47 170 -54 50 -16 331 -92 365 -99 14 -2 66
-14 115 -26 96 -24 113 -27 160 -35 17 -3 62 -12 100 -20 71 -14 166 -31 220
-39 58 -9 120 -18 136 -21 9 -2 40 -6 70 -10 30 -3 65 -8 79 -10 14 -2 50 -6
80 -10 30 -3 71 -8 90 -10 61 -8 235 -23 340 -30 352 -24 906 -24 1225 0 162
12 223 17 245 20 14 2 54 6 90 10 36 3 81 8 100 10 19 3 71 9 115 15 44 6 89
12 100 14 12 2 48 8 80 12 33 4 62 8 65 9 3 1 25 5 50 9 25 4 90 16 145 27 55
11 112 22 127 24 16 3 58 12 95 21 38 9 75 17 83 19 8 2 35 8 60 15 25 7 56
14 70 16 38 7 291 79 410 118 212 68 392 137 560 213 30 14 72 32 92 40 l38
15 2 1036 3 1035 220 0 c121 -1 226 -2 233 -2 9 -1 12 -188 12 -901 0 -495 3
-900 8 -900 12 1 233 158 332 238 125 101 349 325 434 435 213 274 362 575
430 867 13 58 27 125 31 150 4 25 9 54 11 65 26 131 25 513 -2 700 -12 84 -55
238 -85 307 -135 311 -419 508 -1114 773 -66 25 -129 50 -140 55 -11 5 -114
43 -230 85 -115 41 -219 79 -230 84 -11 5 -60 23 -110 41 -49 17 -99 35 -110
40 -11 5 -90 34 -175 65 -370 136 -427 157 -460 170 -30 12 -261 100 -435 166
-27 10 -52 15 -56 11 -4 -4 -154 -301 -335 -659 -181 -359 -434 -861 -562
-1115 -129 -255 -329 -652 -445 -882 -116 -231 -224 -435 -241 -454 -79 -90
-211 -103 -312 -30 -51 36 -46 27 -299 568 -40 85 -92 196 -115 245 -90 192
-264 564 -300 640 -117 250 -256 546 -309 659 -34 70 -61 130 -61 131 0 2 -29
63 -64 136 -35 74 -75 159 -89 189 -13 30 -43 93 -65 140 -48 102 -131 279
-174 373 -18 37 -34 67 -37 66 -3 -1 -143 -54 -311 -119z"/>
<path d="M27359 26386 c-3 -33 -4 -813 -1 -823 3 -9 86 -12 333 -12 l329 0 0
423 0 423 -330 0 c-227 -1 -330 -4 -331 -11z"/>
<path d="M27384 25082 l-81 -3 -26 -112 c-15 -62 -45 -188 -68 -282 -46 -195
-77 -325 -148 -618 -28 -114 -53 -218 -55 -230 -3 -12 -15 -60 -26 -107 -12
-47 -23 -92 -25 -100 -2 -8 -12 -53 -24 -100 -11 -47 -34 -143 -51 -215 -17
-71 -33 -137 -35 -145 -4 -13 87 -15 785 -15 434 1 791 3 794 6 5 5 -7 80 -38
234 -8 39 -17 86 -20 105 -3 19 -8 46 -11 60 -3 14 -23 117 -44 230 -22 113
-42 216 -45 230 -15 77 -58 298 -61 315 -2 11 -12 67 -24 125 -11 58 -25 130
-31 160 -5 30 -12 66 -15 80 -35 178 -54 277 -62 330 -2 19 -8 39 -12 43 -8 8
-518 15 -677 9z"/>
<path d="M17517 22184 c-1 -1 -110 -5 -242 -9 -343 -10 -503 -19 -665 -40 -19
-2 -57 -7 -85 -10 -92 -10 -186 -23 -225 -30 -14 -3 -36 -7 -50 -10 -191 -36
-417 -93 -620 -155 -74 -23 -148 -45 -165 -50 -75 -19 -560 -199 -805 -298
-174 -70 -531 -225 -693 -301 -49 -22 -90 -41 -92 -41 -3 0 -355 -166 -465
-219 -19 -10 -222 -112 -450 -228 -389 -197 -522 -266 -680 -350 -36 -20 -103
-56 -150 -81 -137 -73 -204 -109 -405 -220 -104 -58 -215 -118 -245 -135 -30
-16 -89 -49 -130 -72 -249 -141 -449 -254 -473 -267 l-28 -14 47 -60 c27 -32
51 -61 54 -64 51 -46 380 -487 607 -815 84 -122 408 -610 501 -755 129 -203
472 -754 536 -863 10 -18 80 -135 155 -262 76 -126 162 -273 192 -325 30 -52
59 -104 66 -115 7 -11 17 -29 22 -40 6 -11 22 -38 36 -60 14 -22 28 -46 32
-54 3 -8 40 -73 81 -145 316 -554 765 -1405 868 -1643 10 -24 21 -43 25 -43 4
0 65 21 136 46 359 129 863 289 1001 319 9 2 53 13 97 25 156 42 494 120 585
135 19 3 53 10 75 15 22 5 58 11 80 14 22 4 65 11 95 16 30 5 73 12 95 15 22
3 51 8 65 10 40 8 94 15 131 19 19 2 59 7 89 10 59 7 85 10 195 20 139 13 162
15 295 22 242 13 613 8 830 -10 19 -2 77 -6 128 -10 51 -4 101 -9 110 -10 16
-3 64 -10 167 -22 22 -3 81 -12 130 -20 50 -8 106 -17 125 -20 19 -3 123 -23
230 -44 394 -80 805 -195 1535 -430 417 -135 839 -264 904 -276 14 -3 28 -7
31 -9 23 -14 642 -162 750 -180 19 -3 60 -10 90 -16 30 -6 69 -13 85 -15 17
-3 41 -7 55 -10 14 -2 43 -7 65 -10 22 -3 51 -7 65 -10 59 -9 313 -40 405 -49
33 -3 80 -8 105 -10 280 -26 1023 -26 1275 0 181 19 240 28 405 61 234 48 416
98 760 210 186 60 611 213 705 254 111 48 165 70 174 70 6 0 19 4 29 10 9 5
127 57 262 114 135 57 270 115 300 129 30 14 100 45 155 70 92 42 150 68 340
157 224 104 771 375 1000 495 285 149 347 182 450 238 61 33 135 73 165 90 30
16 78 42 105 57 28 15 70 39 95 52 79 43 362 204 455 258 50 29 110 64 135 77
63 36 159 92 200 118 19 12 103 62 185 111 83 48 199 119 258 156 60 37 110
68 112 68 3 0 187 115 225 140 60 40 122 80 125 80 11 0 667 435 895 593 272
189 784 564 940 690 372 298 521 423 705 590 125 114 441 430 519 519 245 282
402 527 472 738 59 180 27 441 -76 625 -102 183 -293 332 -530 414 -36 13 -72
26 -80 29 -8 3 -19 6 -25 7 -5 2 -28 8 -50 13 -22 6 -55 14 -74 17 -19 3 -37
7 -40 9 -3 2 -26 7 -51 10 -25 3 -54 8 -65 10 -11 2 -54 7 -95 11 -41 4 -88 9
-105 11 -41 6 -449 6 -505 0 -25 -3 -79 -8 -120 -11 -41 -4 -86 -8 -100 -10
-14 -2 -50 -7 -80 -10 -30 -4 -57 -8 -60 -10 -3 -2 -34 -6 -70 -10 -36 -4 -68
-9 -71 -10 -3 -2 -28 -7 -55 -10 -27 -4 -57 -9 -66 -11 -10 -3 -29 -7 -43 -10
-420 -72 -1102 -265 -1745 -491 -272 -96 -785 -292 -937 -359 -33 -14 -74 -32
-135 -58 -210 -89 -294 -126 -416 -182 -41 -19 -75 -34 -76 -34 -16 0 -714
-344 -902 -444 -174 -92 -480 -263 -542 -302 -29 -19 -54 -34 -56 -34 -17 0
-538 -335 -661 -425 -240 -175 -262 -194 -296 -261 -143 -279 -430 -501 -819
-635 -134 -46 -235 -74 -345 -95 -22 -4 -46 -8 -53 -10 -8 -1 -44 -8 -82 -14
-38 -6 -77 -13 -87 -15 -10 -1 -47 -6 -83 -10 -36 -4 -76 -9 -90 -11 -164 -26
-860 -26 -1170 1 -19 1 -73 6 -120 10 -47 4 -96 8 -110 10 -41 5 -142 16 -189
20 -47 5 -329 42 -371 49 -14 3 -45 7 -70 10 -25 3 -56 8 -70 11 -13 2 -42 7
-65 11 -34 5 -93 14 -295 49 -50 8 -222 40 -270 50 -14 2 -41 7 -60 10 -19 3
-43 8 -52 11 -9 3 -25 6 -35 9 -165 33 -303 62 -413 87 -118 26 -224 50 -283
63 -9 2 -44 11 -78 19 -33 9 -75 18 -92 21 -18 3 -45 10 -62 15 -16 5 -41 11
-55 14 -14 3 -88 21 -165 41 -77 20 -151 39 -165 42 -14 3 -117 30 -230 60
-113 30 -212 56 -220 58 -122 27 -386 107 -414 126 -34 23 -86 94 -94 127 -9
39 -3 130 11 163 23 52 84 106 140 125 57 19 111 15 214 -14 38 -11 138 -38
223 -61 85 -22 207 -55 270 -72 63 -17 122 -32 130 -34 8 -2 123 -31 255 -64
311 -78 706 -171 795 -187 14 -3 32 -7 40 -9 8 -3 33 -7 55 -11 22 -3 43 -8
46 -10 4 -2 24 -6 45 -9 22 -4 53 -10 69 -15 17 -4 48 -12 70 -16 47 -8 58
-11 105 -19 19 -4 46 -9 60 -11 14 -2 36 -7 50 -10 32 -7 69 -15 95 -19 11 -2
112 -19 225 -38 113 -20 225 -38 250 -42 25 -3 56 -8 70 -10 14 -3 41 -7 60
-9 19 -3 67 -9 105 -15 39 -5 97 -13 130 -17 33 -3 67 -7 75 -9 13 -2 71 -9
180 -20 19 -2 67 -6 105 -10 39 -3 88 -8 110 -10 267 -27 1003 -27 1147 0 9 2
45 6 80 10 110 11 319 55 433 92 498 159 743 467 730 916 -2 67 -6 133 -8 147
-3 14 -8 44 -11 67 -16 98 -72 258 -126 358 -162 299 -424 560 -820 817 -63
41 -135 86 -160 100 -25 14 -74 42 -110 63 -63 36 -443 225 -454 225 -2 0 -33
13 -68 29 -361 164 -1117 416 -1608 536 -8 2 -62 15 -120 30 -58 14 -115 28
-126 31 -12 2 -77 17 -145 33 -68 17 -135 32 -149 35 -14 2 -81 16 -150 31
-146 31 -154 33 -200 41 -19 3 -48 10 -65 14 -16 5 -48 11 -70 14 -50 7 -87
14 -145 26 -40 8 -94 18 -200 35 -19 3 -42 8 -50 10 -8 2 -35 7 -60 10 -25 3
-52 8 -60 10 -8 2 -33 6 -55 10 -41 6 -151 23 -195 30 -14 2 -47 7 -75 10 -27
4 -57 8 -65 10 -8 2 -35 7 -60 10 -50 6 -112 15 -150 20 -26 4 -240 31 -325
40 -27 3 -61 8 -75 10 -14 2 -53 7 -87 10 -34 3 -70 7 -80 9 -10 2 -58 7 -108
11 -49 4 -92 8 -95 10 -3 1 -46 6 -97 9 -50 4 -100 8 -110 10 -10 2 -63 7
-118 10 -55 4 -111 9 -125 11 -14 2 -74 6 -135 10 -60 3 -130 8 -155 10 -25 2
-101 7 -170 10 -69 3 -154 8 -190 10 -154 9 -906 24 -913 19z"/>
<path d="M9525 19903 c-149 -25 -242 -58 -462 -164 -203 -98 -348 -167 -478
-229 -186 -89 -499 -240 -520 -252 -11 -6 -81 -43 -155 -81 -74 -39 -170 -90
-214 -114 -43 -23 -80 -43 -81 -43 -8 0 -294 -171 -380 -227 -211 -138 -366
-275 -417 -370 -42 -77 -61 -165 -62 -293 -1 -156 17 -288 70 -505 8 -33 16
-67 18 -75 10 -39 28 -108 37 -135 71 -223 224 -835 254 -1015 3 -19 10 -57
15 -85 5 -27 12 -68 15 -90 3 -23 7 -52 10 -65 3 -14 12 -77 20 -140 22 -162
23 -168 30 -235 4 -33 8 -71 10 -85 2 -14 7 -61 11 -105 3 -44 7 -87 9 -95 2
-8 6 -62 10 -120 4 -58 8 -121 10 -140 2 -19 6 -87 10 -150 3 -63 8 -142 10
-175 5 -67 15 -346 20 -560 2 -77 6 -462 9 -855 11 -1374 21 -1803 51 -2177
18 -221 34 -400 40 -443 4 -25 13 -97 20 -155 6 -49 17 -129 21 -150 3 -11 7
-36 10 -55 5 -34 32 -186 40 -225 2 -11 6 -31 9 -45 37 -187 135 -522 183
-620 26 -52 29 -55 61 -52 47 3 132 42 286 131 72 41 166 94 210 119 100 56
478 247 650 329 72 34 206 98 298 142 93 45 170 81 172 81 2 0 46 20 97 44
216 102 310 146 313 146 2 0 46 20 97 44 51 24 122 57 158 74 36 16 135 62
220 102 85 40 241 112 345 160 198 92 302 141 595 278 794 374 1571 763 1945
975 214 120 527 317 555 347 3 3 28 23 55 45 136 109 182 184 211 345 8 46 8
200 0 275 -49 448 -336 1099 -1064 2415 -14 25 -53 95 -87 155 -97 170 -106
187 -133 235 -35 62 -330 567 -357 610 -12 19 -25 42 -28 50 -4 8 -29 50 -55
92 -26 43 -74 121 -106 175 -139 229 -401 647 -567 903 -510 790 -927 1352
-1229 1659 -239 243 -497 385 -718 394 -42 2 -86 2 -97 0z m1530 -5107 c349
-28 679 -302 778 -647 28 -96 32 -130 31 -274 0 -157 -18 -239 -78 -370 -106
-228 -307 -407 -546 -483 -62 -20 -78 -23 -160 -38 -19 -3 -77 -6 -128 -6
-450 2 -829 333 -898 787 -7 45 -6 211 1 248 31 164 72 270 149 386 52 78 159
190 219 229 23 15 44 30 47 33 3 4 37 23 77 43 91 45 226 85 318 93 38 3 72 7
73 8 2 2 13 2 25 0 12 -2 54 -6 92 -9z"/>
<path d="M10816 14305 c-198 -69 -318 -262 -293 -468 38 -317 393 -488 667
-322 132 80 205 211 208 370 4 304 -296 520 -582 420z"/>
<path d="M2241 9270 c-201 -78 -213 -349 -20 -451 l44 -24 13385 1 c12573 0
13387 1 13423 17 190 86 196 357 9 449 l-47 23 -13377 0 c-12140 1 -13381 0
-13417 -15z"/>
<path d="M11465 7998 c-206 -43 -254 -309 -77 -426 l55 -37 9476 -3 c5212 -1
9500 0 9528 4 68 7 138 53 177 117 25 40 30 59 30 111 0 105 -55 187 -154 227
-30 12 -1360 14 -9517 14 -5215 0 -9498 -3 -9518 -7z"/>
<path d="M10689 6876 c-75 -27 -130 -89 -149 -166 -31 -130 53 -264 179 -285
24 -4 1446 -7 3160 -7 2375 0 3126 2 3160 12 61 16 135 91 155 159 15 50 14
72 -5 145 -14 51 -91 128 -145 144 -63 18 -6303 17 -6355 -2z"/>
<path d="M22534 6849 c-44 -9 -86 -34 -119 -71 -44 -49 -56 -74 -62 -133 -10
-100 38 -189 131 -238 l41 -22 6600 1 6600 0 48 23 c79 39 128 119 128 210 1
92 -47 170 -127 211 l-49 25 -6581 0 c-3619 0 -6593 -2 -6610 -6z"/>
<path d="M36955 6850 c-127 -27 -211 -167 -175 -294 15 -56 69 -120 124 -148
l41 -22 865 -2 c814 -1 868 0 914 17 129 48 190 190 133 312 -30 63 -54 90
-110 119 l-42 22 -860 1 c-473 1 -873 -2 -890 -5z"/>
</g>
</svg>
